<?xml version="1.0" encoding="utf-8"?>
<!-- Svg Vector Icons : http://www.onlinewebfonts.com/icon -->
<!DOCTYPE svg PUBLIC "-//W3C//DTD SVG 1.1//EN" "http://www.w3.org/Graphics/SVG/1.1/DTD/svg11.dtd">
<svg version="1.1" xmlns="http://www.w3.org/2000/svg" xmlns:xlink="http://www.w3.org/1999/xlink" x="0px" y="0px" viewBox="0 0 1000 1000" enable-background="new 0 0 1000 1000" xml:space="preserve">
<metadata> Svg Vector Icons : http://www.onlinewebfonts.com/icon </metadata>
<g><g transform="translate(0.000000,511.000000) scale(0.100000,-0.100000)"><path d="M4193.3,4984.2c-243-59.2-435-218.5-547.3-457.5c-57.2-122.5-65.4-157.3-65.4-320.6c0-218.5,36.8-343.1,149.1-490.1c437.1-578,1323.4-367.6,1456.1,347.2c73.5,404.4-194,812.8-604.5,919C4440.4,5018.9,4334.2,5018.9,4193.3,4984.2z"/><path d="M3345.8,3256.5c-226.7-30.6-353.3-124.6-451.3-337c-124.6-267.5-159.3-663.7-161.3-1756.3c0-696.4,14.3-919,73.5-1145.7c71.5-279.8,212.4-479.9,396.2-557.5l102.1-44.9v-1893.1v-1893.2l49-102.1c89.9-196.1,261.4-300.2,492.2-304.3c124.6,0,159.3,8.2,255.3,61.3c122.5,69.4,241,204.2,259.4,296.1c14.3,75.6,38.8,75.6,53.1,0c18.4-91.9,136.8-226.7,259.4-296.1c96-53.1,130.7-61.3,255.3-61.3c234.9,2.1,406.4,112.3,502.4,322.7c36.8,79.6,38.8,202.2,38.8,2755c0,1468.4,6.1,2669.2,16.3,2669.2c8.2,0,177.7-318.6,377.8-704.6c200.1-388,388-731.1,414.6-765.8c122.5-145,292.1-192,435-118.5c140.9,71.5,175.6,134.8,175.6,308.4c0,145-12.2,177.7-616.8,1717.5c-410.5,1043.6-637.2,1597-676,1644c-32.7,40.8-98,102.1-145,134.8l-87.8,61.3l-390.1,14.3C4458.8,3276.9,3488.7,3274.8,3345.8,3256.5z"/><path d="M6611.3-1146.6c-16.4-20.4-30.6-106.2-34.7-224.6l-8.2-192h-171.5c-194,0-261.4-22.5-294.1-100.1c-14.3-36.8-20.4-504.4-16.3-1539.8l6.1-1488.8l57.2-49c57.2-49,59.2-49,537.1-49h479.9l49,51.1l51.1,49v1513.3v1513.3l-51.1,49c-44.9,47-65.4,51.1-245.1,51.1h-194v185.8c0,102.1-10.2,202.2-20.4,224.6C6729.8-1105.8,6648.1-1101.7,6611.3-1146.6z"/></g></g>
</svg>